<?xml version="1.0" encoding="iso-8859-1"?>
<!-- Generator: Adobe Illustrator 19.0.0, SVG Export Plug-In . SVG Version: 6.00 Build 0)  -->
<svg version="1.1" id="Capa_1" xmlns="http://www.w3.org/2000/svg" xmlns:xlink="http://www.w3.org/1999/xlink" x="0px" y="0px"
	 viewBox="0 0 512.045 512.045" style="enable-background:new 0 0 512.045 512.045;" xml:space="preserve">
<g transform="translate(-1 -1)">
	<g transform="translate(2 2)">
		<g>
			<path style="fill:#FFB301;" d="M184.132,236.603c-20.025-24.169-33.563-53.04-39.339-83.891
				c-6.503,35.471-23.507,68.172-48.811,93.867L184.132,236.603z"/>
			<path style="fill:#FFB301;" d="M325.922,236.603c20.025-24.169,33.563-53.04,39.339-83.891
				c6.503,35.471,23.508,68.172,48.811,93.867L325.922,236.603z"/>
		</g>
		<path style="fill:#FDD834;" d="M468.378,246.578v179.2H41.711v-179.2h96c15.483-0.017,30.785-3.333,44.885-9.728l27.989-12.715
			c11.804-5.352,22.533-12.813,31.659-22.016c9.126,9.203,19.855,16.664,31.659,22.016l27.989,12.715
			c14.101,6.395,29.402,9.711,44.885,9.728H468.378z"/>
		<path style="fill:#FFEB3A;" d="M442.778,246.578v179.2H41.711v-179.2h96c15.483-0.017,30.785-3.333,44.885-9.728l27.989-12.715
			c11.804-5.352,22.533-12.813,31.659-22.016c9.126,9.203,19.855,16.664,31.659,22.016l27.989,12.715
			c14.101,6.395,29.402,9.711,44.885,9.728H442.778z"/>
		<path style="fill:#FFB301;" d="M41.711,251.118c16.469,11.767,42.598,21.06,83.985,21.06c112.102,0,129.348-68.267,129.348-68.267
			s17.246,68.267,129.348,68.267c41.387,0,67.516-9.293,83.985-21.06l-0.538-49.34c-21.393,24.199-52.521,37.512-84.796,36.267
			c-110.933,0-128-110.933-128-110.933s-17.067,110.933-128,110.933c-40.96,0-69.035-15.019-85.333-34.133V251.118z"/>
		<g>
			<circle style="fill:#673AB7;" cx="255.044" cy="92.978" r="34.133"/>
			<circle style="fill:#673AB7;" cx="41.711" cy="169.778" r="34.133"/>
			<circle style="fill:#673AB7;" cx="468.378" cy="169.778" r="34.133"/>
			<circle style="fill:#673AB7;" cx="144.111" cy="127.111" r="25.6"/>
			<circle style="fill:#673AB7;" cx="365.943" cy="127.111" r="25.6"/>
		</g>
		<rect x="41.711" y="323.378" style="fill:#FFB301;" width="426.667" height="59.733"/>
		<rect x="41.711" y="323.378" style="fill:#FEC108;" width="401.067" height="59.733"/>
		<path style="fill:#C52828;" d="M24.644,383.111h460.8c4.713,0,8.533,3.82,8.533,8.533v51.2c0,4.713-3.821,8.533-8.533,8.533
			h-460.8c-4.713,0-8.533-3.82-8.533-8.533v-51.2C16.111,386.932,19.931,383.111,24.644,383.111z"/>
		<path style="fill:#F44335;" d="M24.644,383.111h426.667c4.713,0,8.533,3.82,8.533,8.533v51.2c0,4.713-3.821,8.533-8.533,8.533
			H24.644c-4.713,0-8.533-3.82-8.533-8.533v-51.2C16.111,386.932,19.931,383.111,24.644,383.111z"/>
	</g>
	<path d="M513.044,171.778c0.09-21.112-15.275-39.116-36.139-42.346c-20.864-3.23-40.953,9.285-47.251,29.436
		c-6.298,20.151,3.088,41.879,22.078,51.105c-9.724,8.11-21.098,14.004-33.331,17.271c-19.311-17.739-33.371-40.446-40.644-65.638
		c16.099-4.837,26.28-20.675,23.996-37.329c-2.285-16.654-16.354-29.165-33.161-29.488s-31.347,11.639-34.269,28.194
		c-2.922,16.554,6.643,32.771,22.545,38.222c-6.007,20.748-16.52,39.915-30.788,56.132c-39.706-21.854-54.221-63.223-58.778-81.118
		c20.939-5.177,34.721-25.166,32.114-46.577s-20.784-37.509-42.354-37.509s-39.746,16.098-42.354,37.509
		c-2.607,21.411,11.175,41.401,32.114,46.577c-4.514,17.92-18.953,59.324-58.795,81.169c-14.283-16.219-24.807-35.392-30.822-56.149
		c15.903-5.449,25.471-21.667,22.549-38.222s-17.462-28.518-34.269-28.195c-16.808,0.323-30.878,12.836-33.161,29.491
		c-2.283,16.655,7.9,32.493,24.001,37.328c-7.289,25.18-21.354,47.873-40.661,65.604c-12.218-3.285-23.574-9.19-33.28-17.306
		c18.569-9.265,27.715-30.6,21.619-50.437c-6.095-19.837-25.643-32.356-46.211-29.594C17.222,132.669,1.668,149.9,1.021,170.642
		s13.801,38.91,34.157,42.949v162.987h-8.533c-9.426,0-17.067,7.641-17.067,17.067v51.2c0,9.426,7.641,17.067,17.067,17.067h460.8
		c9.426,0,17.067-7.641,17.067-17.067v-51.2c0-9.426-7.641-17.067-17.067-17.067h-8.533V213.591
		C498.763,209.509,513.019,192.046,513.044,171.778z M470.378,146.178c14.138,0,25.6,11.462,25.6,25.6
		c0,14.138-11.462,25.6-25.6,25.6c-14.138,0-25.6-11.462-25.6-25.6C444.778,157.639,456.239,146.178,470.378,146.178z
		 M350.911,129.111c0-9.426,7.641-17.067,17.067-17.067c9.426,0,17.067,7.641,17.067,17.067s-7.641,17.067-17.067,17.067
		C358.552,146.178,350.911,138.537,350.911,129.111z M367.278,183.289c7.194,17.588,17.502,33.732,30.43,47.659
		c-4.13,0.358-8.32,0.563-12.663,0.563c-14.52,0.16-28.962-2.148-42.709-6.827c10.335-12.469,18.733-26.424,24.909-41.395H367.278z
		 M231.444,94.978c0-14.138,11.462-25.6,25.6-25.6c14.138,0,25.6,11.462,25.6,25.6s-11.462,25.6-25.6,25.6
		C242.906,120.578,231.444,109.116,231.444,94.978z M257.044,158.978c11.984,33.01,35.932,60.314,67.098,76.501
		c0.318,0.173,0.646,0.326,0.981,0.461c18.777,8.642,39.254,12.96,59.921,12.638c27.735,1.097,54.957-7.705,76.8-24.832v24.695
		c-17.92,11.366-43.238,17.203-75.46,17.203c-103.415,0-120.405-59.349-121.062-61.824c-0.146-0.371-0.32-0.731-0.521-1.075
		c-0.188-0.528-0.431-1.034-0.725-1.51c-0.931-1.468-2.343-2.569-3.994-3.115c-0.29-0.17-0.593-0.318-0.905-0.444
		c-0.119,0-0.247,0-0.367,0c-0.656-0.116-1.324-0.15-1.988-0.102c-0.433-0.017-0.867,0-1.297,0.051c-0.196,0-0.375,0-0.572,0
		c-0.487,0.18-0.956,0.405-1.399,0.674c-0.362,0.142-0.713,0.31-1.05,0.503c-0.583,0.388-1.114,0.85-1.579,1.374
		c-0.305,0.282-0.59,0.584-0.853,0.905c-0.352,0.548-0.638,1.135-0.853,1.749c-0.178,0.298-0.335,0.609-0.469,0.93
		c-0.674,2.56-17.664,61.875-121.079,61.875c-32.188,0.009-57.506-5.828-75.426-17.195v-24.695
		c21.843,17.127,49.065,25.929,76.8,24.832c20.675,0.315,41.157-4.013,59.938-12.663c0.299-0.111,0.563-0.265,0.853-0.401
		C221.053,219.345,245.045,192.023,257.044,158.978z M129.044,129.111c0-9.426,7.641-17.067,17.067-17.067
		c9.426,0,17.067,7.641,17.067,17.067s-7.641,17.067-17.067,17.067C136.685,146.178,129.044,138.537,129.044,129.111z
		 M146.811,183.289c6.189,14.973,14.597,28.927,24.943,41.395c-13.736,4.665-28.161,6.973-42.667,6.827
		c-4.352,0-8.533-0.205-12.663-0.563C129.337,217.019,139.631,200.874,146.811,183.289z M18.111,171.778
		c0-14.139,11.462-25.6,25.6-25.6s25.6,11.462,25.6,25.6c0,14.138-11.462,25.6-25.6,25.6S18.111,185.916,18.111,171.778z
		 M487.444,410.711h-179.2c-4.713,0-8.533,3.82-8.533,8.533s3.821,8.533,8.533,8.533h179.2v17.067h-460.8v-17.067h179.2
		c4.713,0,8.533-3.82,8.533-8.533s-3.821-8.533-8.533-8.533h-179.2v-17.067h460.8V410.711z M52.244,376.578v-42.667h384
		c4.713,0,8.533-3.82,8.533-8.533s-3.82-8.533-8.533-8.533h-384v-48.879c23.7,10.603,49.512,15.647,75.46,14.746
		c81.408,0,115.686-34.458,129.34-56.602c13.653,22.144,47.932,56.602,129.34,56.602c25.949,0.901,51.76-4.142,75.46-14.746v108.612
		H52.244z"/>
</g>
<g>
</g>
<g>
</g>
<g>
</g>
<g>
</g>
<g>
</g>
<g>
</g>
<g>
</g>
<g>
</g>
<g>
</g>
<g>
</g>
<g>
</g>
<g>
</g>
<g>
</g>
<g>
</g>
<g>
</g>
</svg>
