<?xml version="1.0" standalone="no"?>
<!DOCTYPE svg PUBLIC "-//W3C//DTD SVG 20010904//EN"
 "http://www.w3.org/TR/2001/REC-SVG-20010904/DTD/svg10.dtd">
<svg version="1.0" xmlns="http://www.w3.org/2000/svg"
 width="512.000000pt" height="512.000000pt" viewBox="0 0 512.000000 512.000000"
 preserveAspectRatio="xMidYMid meet">
<metadata>
Created by potrace 1.11, written by Peter Selinger 2001-2013
</metadata>
<g transform="translate(0.000000,512.000000) scale(0.100000,-0.100000)"
fill="#000000" stroke="none">
<path d="M2508 5101 c-15 -12 -32 -43 -43 -80 -10 -34 -23 -65 -29 -70 -6 -4
-50 -11 -97 -15 -443 -32 -920 -226 -1284 -521 -120 -97 -313 -297 -401 -415
-270 -361 -440 -802 -470 -1219 -4 -47 -11 -91 -15 -97 -5 -6 -36 -19 -70 -29
-134 -41 -134 -148 1 -190 74 -24 80 -30 80 -84 0 -25 9 -107 20 -182 97 -661
483 -1262 1052 -1639 196 -130 496 -260 738 -320 101 -26 326 -60 391 -60 54
0 60 -6 84 -80 42 -134 148 -134 190 0 24 74 30 80 84 80 70 0 294 35 407 64
861 218 1535 902 1737 1761 31 130 57 302 57 373 0 57 5 63 80 87 64 20 100
54 100 95 0 41 -36 75 -100 95 -74 24 -80 30 -80 84 0 65 -34 290 -60 391 -60
242 -190 542 -320 738 -377 569 -978 955 -1639 1052 -75 11 -157 20 -182 20
-54 0 -60 6 -84 80 -28 92 -90 125 -147 81z m-138 -340 c0 -10 -149 -433 -154
-438 -2 -3 -33 -11 -67 -19 -113 -26 -251 -75 -364 -130 -109 -52 -286 -163
-355 -222 l-34 -29 -134 88 c-73 49 -140 89 -147 89 -43 0 -95 -51 -95 -94 0
-8 40 -75 89 -148 l88 -134 -29 -34 c-59 -69 -170 -246 -222 -355 -55 -113
-104 -251 -130 -364 -8 -34 -16 -65 -19 -67 -5 -5 -428 -154 -438 -154 -17 0
27 268 66 405 105 370 298 698 570 970 272 272 600 465 970 570 83 24 263 59
345 68 19 2 41 5 48 5 6 1 12 -2 12 -7z m535 -12 c263 -39 584 -159 822 -306
523 -325 903 -880 1008 -1473 35 -200 37 -223 17 -217 -41 12 -425 147 -429
150 -2 3 -12 40 -23 83 -57 234 -164 459 -314 658 l-62 83 84 124 c95 139 107
179 64 221 -42 43 -82 31 -221 -64 l-124 -84 -83 62 c-197 148 -429 259 -658
314 -43 11 -80 21 -82 23 -6 5 -154 428 -154 439 0 8 19 7 155 -13z m-435
-1111 l0 -863 -225 225 -226 226 223 637 c123 350 224 637 226 637 1 0 2 -388
2 -862z m412 212 l218 -625 -225 -225 -225 -225 1 865 c0 476 3 858 6 850 3
-8 104 -296 225 -640z m268 218 c103 -40 207 -95 313 -165 53 -36 100 -69 103
-74 2 -4 -62 -53 -144 -108 l-149 -99 -43 28 c-23 15 -59 35 -79 45 -36 16
-38 19 -106 213 -37 108 -70 202 -72 209 -5 13 66 -7 177 -49z m-1062 -120
c-33 -95 -65 -187 -71 -205 -7 -22 -21 -36 -47 -48 -21 -9 -57 -30 -80 -45
l-43 -28 -150 100 -150 100 24 19 c65 52 200 135 282 175 97 46 250 103 279
104 14 0 7 -28 -44 -172z m-689 -527 l99 -148 -28 -43 c-15 -23 -35 -59 -45
-79 -16 -37 -19 -38 -222 -109 -113 -40 -207 -71 -209 -70 -7 8 73 219 120
313 47 94 168 285 181 285 3 0 49 -67 104 -149z m2505 41 c78 -117 145 -253
190 -387 19 -55 33 -101 32 -103 -2 -1 -96 30 -209 70 -203 71 -206 72 -222
109 -10 20 -30 56 -45 79 l-28 43 99 149 c55 82 104 146 109 143 5 -3 39 -50
74 -103z m-1784 -587 l225 -225 -860 1 c-473 0 -855 3 -850 5 11 5 1247 441
1255 443 3 0 106 -100 230 -224z m1750 -2 c338 -118 617 -217 619 -219 2 -2
-382 -4 -855 -4 l-859 0 225 225 c154 154 230 223 240 219 8 -3 292 -102 630
-221z m-3290 -578 c118 -41 215 -77 217 -79 3 -2 11 -33 19 -67 26 -113 75
-251 130 -364 52 -109 163 -286 222 -355 l29 -34 -88 -134 c-49 -73 -89 -140
-89 -147 0 -43 51 -95 94 -95 8 0 75 40 148 89 l134 88 34 -29 c175 -148 479
-297 719 -352 34 -8 65 -16 67 -19 8 -8 156 -438 152 -442 -9 -10 -239 28
-362 60 -635 162 -1172 608 -1449 1200 -71 153 -101 233 -137 370 -41 155 -78
385 -61 385 4 0 104 -34 221 -75z m4186 53 c-3 -13 -8 -50 -11 -83 -37 -348
-212 -764 -451 -1072 -345 -443 -888 -754 -1444 -828 -57 -8 -106 -12 -108
-10 -4 4 144 434 152 442 2 3 33 11 67 19 240 55 544 204 719 352 l35 30 125
-85 c149 -101 176 -109 221 -64 44 45 37 72 -60 216 -45 65 -81 123 -81 127 0
4 27 45 61 90 149 201 253 420 309 652 11 43 21 80 23 83 3 2 96 35 208 74
112 38 205 72 208 74 14 14 31 3 27 -17z m-2298 -1297 l-3 -428 -223 636 -222
636 222 222 223 223 3 -430 c1 -236 1 -623 0 -859z m-1256 1024 c194 -68 197
-70 213 -106 10 -20 30 -56 45 -79 l28 -43 -99 -149 c-55 -82 -104 -146 -109
-143 -18 11 -132 190 -172 269 -68 134 -137 331 -115 323 7 -2 101 -35 209
-72z m2898 18 c-49 -160 -117 -302 -210 -441 -33 -50 -65 -94 -70 -97 -5 -3
-54 61 -109 143 l-99 149 28 43 c15 23 35 59 45 79 16 36 19 38 218 108 111
40 205 72 209 72 3 1 -2 -25 -12 -56z m-2154 -660 l50 -25 72 -206 c40 -113
71 -206 70 -208 -7 -6 -213 71 -298 112 -89 43 -282 163 -295 184 -3 5 61 54
142 109 l148 99 30 -20 c17 -10 53 -31 81 -45z m1609 -143 c-14 -22 -209 -143
-305 -189 -91 -44 -280 -113 -288 -107 -1 2 30 96 70 209 71 203 72 206 109
222 20 10 56 30 79 45 l43 28 149 -99 c82 -55 146 -104 143 -109z"/>
<path d="M1744 4530 c-12 -5 -29 -19 -38 -32 -57 -81 58 -174 129 -103 37 36
34 86 -6 119 -32 27 -50 30 -85 16z"/>
<path d="M616 3408 c-40 -35 -43 -78 -11 -116 34 -41 84 -44 120 -7 75 74 -30
192 -109 123z"/>
<path d="M3292 4515 c-41 -34 -44 -84 -7 -120 74 -75 192 30 123 109 -35 40
-78 43 -116 11z"/>
<path d="M4395 3405 c-53 -52 -16 -145 57 -145 37 1 59 14 76 47 19 35 14 63
-17 94 -38 37 -82 39 -116 4z"/>
<path d="M605 1828 c-32 -38 -29 -81 11 -115 79 -70 184 48 109 122 -36 37
-86 34 -120 -7z"/>
<path d="M1715 724 c-31 -34 -32 -75 -2 -108 34 -40 77 -43 115 -11 25 21 32
35 32 61 0 77 -94 113 -145 58z"/>
<path d="M4395 1835 c-52 -51 -16 -145 55 -145 37 0 90 47 90 80 0 78 -91 119
-145 65z"/>
<path d="M3285 725 c-37 -36 -34 -86 7 -120 38 -32 81 -29 116 11 69 79 -49
184 -123 109z"/>
</g>
</svg>
